<svg xmlns="http://www.w3.org/2000/svg" xmlns:xlink="http://www.w3.org/1999/xlink" contentStyleType="text/css" height="456px" preserveAspectRatio="none" style="width:597px;height:456px;background:#FFFFFF;" version="1.1" viewBox="0 0 597 456" width="597px" zoomAndPan="magnify"><defs/><g><!--class userLogin.PersonData--><g id="elem_userLogin.PersonData"><rect codeLine="3" fill="#F1F1F1" height="96.8906" id="userLogin.PersonData" rx="2.5" ry="2.5" style="stroke:#181818;stroke-width:0.5;" width="259.8096" x="168.5" y="353"/><ellipse cx="253.6689" cy="369" fill="#ADD1B2" rx="11" ry="11" style="stroke:#181818;stroke-width:1.0;"/><path d="M256.6377,374.6406 Q256.0596,374.9375 255.4189,375.0781 Q254.7783,375.2344 254.0752,375.2344 Q251.5752,375.2344 250.2471,373.5938 Q248.9346,371.9375 248.9346,368.8125 Q248.9346,365.6875 250.2471,364.0313 Q251.5752,362.375 254.0752,362.375 Q254.7783,362.375 255.4189,362.5313 Q256.0752,362.6875 256.6377,362.9844 L256.6377,365.7031 Q256.0127,365.125 255.4189,364.8594 Q254.8252,364.5781 254.2002,364.5781 Q252.8564,364.5781 252.1689,365.6563 Q251.4814,366.7188 251.4814,368.8125 Q251.4814,370.9063 252.1689,371.9844 Q252.8564,373.0469 254.2002,373.0469 Q254.8252,373.0469 255.4189,372.7813 Q256.0127,372.5 256.6377,371.9219 L256.6377,374.6406 Z " fill="#000000"/><text fill="#000000" font-family="sans-serif" font-size="14" lengthAdjust="spacing" textLength="80.9717" x="274.1689" y="373.8467">PersonData</text><line style="stroke:#181818;stroke-width:0.5;" x1="169.5" x2="427.3096" y1="385" y2="385"/><ellipse cx="179.5" cy="398.6484" fill="none" rx="3" ry="3" style="stroke:#038048;stroke-width:1.0;"/><text fill="#000000" font-family="sans-serif" font-size="14" lengthAdjust="spacing" textLength="86.0166" x="188.5" y="401.9951">fornavn : str</text><ellipse cx="179.5" cy="414.9453" fill="none" rx="3" ry="3" style="stroke:#038048;stroke-width:1.0;"/><text fill="#000000" font-family="sans-serif" font-size="14" lengthAdjust="spacing" textLength="100.7275" x="188.5" y="418.292">etternavn : str</text><line style="stroke:#181818;stroke-width:0.5;" x1="169.5" x2="427.3096" y1="425.5938" y2="425.5938"/><text fill="#000000" font-family="sans-serif" font-size="14" lengthAdjust="spacing" textLength="247.8096" x="174.5" y="442.5889">__init__(fornavn: str, etternavn: str)</text></g><!--class userLogin.LoginInfo--><g id="elem_userLogin.LoginInfo"><rect codeLine="9" fill="#F1F1F1" height="129.4844" id="userLogin.LoginInfo" rx="2.5" ry="2.5" style="stroke:#181818;stroke-width:0.5;" width="423.1543" x="87" y="164"/><ellipse cx="262.0718" cy="180" fill="#ADD1B2" rx="11" ry="11" style="stroke:#181818;stroke-width:1.0;"/><path d="M265.0405,185.6406 Q264.4624,185.9375 263.8218,186.0781 Q263.1812,186.2344 262.478,186.2344 Q259.978,186.2344 258.6499,184.5938 Q257.3374,182.9375 257.3374,179.8125 Q257.3374,176.6875 258.6499,175.0313 Q259.978,173.375 262.478,173.375 Q263.1812,173.375 263.8218,173.5313 Q264.478,173.6875 265.0405,173.9844 L265.0405,176.7031 Q264.4155,176.125 263.8218,175.8594 Q263.228,175.5781 262.603,175.5781 Q261.2593,175.5781 260.5718,176.6563 Q259.8843,177.7188 259.8843,179.8125 Q259.8843,181.9063 260.5718,182.9844 Q261.2593,184.0469 262.603,184.0469 Q263.228,184.0469 263.8218,183.7813 Q264.4155,183.5 265.0405,182.9219 L265.0405,185.6406 Z " fill="#000000"/><text fill="#000000" font-family="sans-serif" font-size="14" lengthAdjust="spacing" textLength="64.5107" x="282.5718" y="184.8467">LoginInfo</text><line style="stroke:#181818;stroke-width:0.5;" x1="88" x2="509.1543" y1="196" y2="196"/><ellipse cx="98" cy="209.6484" fill="none" rx="3" ry="3" style="stroke:#038048;stroke-width:1.0;"/><text fill="#000000" font-family="sans-serif" font-size="14" lengthAdjust="spacing" textLength="70.7656" x="107" y="212.9951">email : str</text><ellipse cx="98" cy="225.9453" fill="none" rx="3" ry="3" style="stroke:#038048;stroke-width:1.0;"/><text fill="#000000" font-family="sans-serif" font-size="14" lengthAdjust="spacing" textLength="98.8682" x="107" y="229.292">password : str</text><ellipse cx="98" cy="242.2422" fill="none" rx="3" ry="3" style="stroke:#038048;stroke-width:1.0;"/><text fill="#000000" font-family="sans-serif" font-size="14" lengthAdjust="spacing" textLength="176.0049" x="107" y="245.5889">personData : PersonData</text><line style="stroke:#181818;stroke-width:0.5;" x1="88" x2="509.1543" y1="252.8906" y2="252.8906"/><text fill="#000000" font-family="sans-serif" font-size="14" lengthAdjust="spacing" textLength="411.1543" x="93" y="269.8857">__init__(email: str, password: str, personData: PersonData)</text><text fill="#000000" font-family="sans-serif" font-size="14" lengthAdjust="spacing" textLength="179.4023" x="93" y="286.1826">velKommenTilOss() : void</text></g><!--class userLogin.LoginInfoListe--><g id="elem_userLogin.LoginInfoListe"><rect codeLine="17" fill="#F1F1F1" height="96.8906" id="userLogin.LoginInfoListe" rx="2.5" ry="2.5" style="stroke:#181818;stroke-width:0.5;" width="583.1357" x="7" y="7"/><ellipse cx="245.5195" cy="23" fill="#ADD1B2" rx="11" ry="11" style="stroke:#181818;stroke-width:1.0;"/><path d="M248.4883,28.6406 Q247.9102,28.9375 247.2695,29.0781 Q246.6289,29.2344 245.9258,29.2344 Q243.4258,29.2344 242.0977,27.5938 Q240.7852,25.9375 240.7852,22.8125 Q240.7852,19.6875 242.0977,18.0313 Q243.4258,16.375 245.9258,16.375 Q246.6289,16.375 247.2695,16.5313 Q247.9258,16.6875 248.4883,16.9844 L248.4883,19.7031 Q247.8633,19.125 247.2695,18.8594 Q246.6758,18.5781 246.0508,18.5781 Q244.707,18.5781 244.0195,19.6563 Q243.332,20.7188 243.332,22.8125 Q243.332,24.9063 244.0195,25.9844 Q244.707,27.0469 246.0508,27.0469 Q246.6758,27.0469 247.2695,26.7813 Q247.8633,26.5 248.4883,25.9219 L248.4883,28.6406 Z " fill="#000000"/><text fill="#000000" font-family="sans-serif" font-size="14" lengthAdjust="spacing" textLength="97.5967" x="266.0195" y="27.8467">LoginInfoListe</text><line style="stroke:#181818;stroke-width:0.5;" x1="8" x2="589.1357" y1="39" y2="39"/><ellipse cx="18" cy="52.6484" fill="none" rx="3" ry="3" style="stroke:#038048;stroke-width:1.0;"/><text fill="#000000" font-family="sans-serif" font-size="14" lengthAdjust="spacing" textLength="186.8877" x="27" y="55.9951">lstloginInfo : list[LoginInfo]</text><line style="stroke:#181818;stroke-width:0.5;" x1="8" x2="589.1357" y1="63.2969" y2="63.2969"/><text fill="#000000" font-family="sans-serif" font-size="14" lengthAdjust="spacing" textLength="137.6895" x="13" y="80.292">__init__(filNavn: str)</text><text fill="#000000" font-family="sans-serif" font-size="14" lengthAdjust="spacing" textLength="571.1357" x="13" y="96.5889">returnLoginInfoIfEmailAndPasswordIsCorrect(email: str, password: str) : LoginInfo</text></g><!--reverse link userLogin.LoginInfoListe to userLogin.LoginInfo--><g id="link_userLogin.LoginInfoListe_userLogin.LoginInfo"><path codeLine="25" d="M298.5,116.13 C298.5,134.61 298.5,144.05 298.5,163.82 " fill="none" id="userLogin.LoginInfoListe-backto-userLogin.LoginInfo" style="stroke:#181818;stroke-width:1.0;"/><polygon fill="#181818" points="298.5,104.13,294.5,110.13,298.5,116.13,302.5,110.13,298.5,104.13" style="stroke:#181818;stroke-width:1.0;"/><text fill="#000000" font-family="sans-serif" font-size="13" lengthAdjust="spacing" textLength="71.7539" x="222.5513" y="124.1072">lstloginInfo</text><text fill="#000000" font-family="sans-serif" font-size="13" lengthAdjust="spacing" textLength="23.0356" x="274.2357" y="152.973">0..*</text></g><!--reverse link userLogin.LoginInfo to userLogin.PersonData--><g id="link_userLogin.LoginInfo_userLogin.PersonData"><path codeLine="26" d="M298.5,305.17 C298.5,324.93 298.5,334.34 298.5,352.81 " fill="none" id="userLogin.LoginInfo-backto-userLogin.PersonData" style="stroke:#181818;stroke-width:1.0;"/><polygon fill="#181818" points="298.5,293.17,294.5,299.17,298.5,305.17,302.5,299.17,298.5,293.17" style="stroke:#181818;stroke-width:1.0;"/><text fill="#000000" font-family="sans-serif" font-size="13" lengthAdjust="spacing" textLength="75.6006" x="219.1899" y="313.5612">personData</text><text fill="#000000" font-family="sans-serif" font-size="13" lengthAdjust="spacing" textLength="8.271" x="289.9699" y="341.9922">1</text></g><!--SRC=[TL9DIyGm4BtdLmmvRLUtwBKtSJqK5rtGcqW9tQa4qad9PEj1_E-sePjcfJtcpRol8OmUIBN8dQhn3JlbbBSEo18AKHl53FA8ZYtjbLSI5CEPqHtibwPy7i2F0BY1nZfIFK41x5r0q7kyngfAa_PLjPcM0tuxBuPt9dwZVV0ggR7_t2C-cMEhj4ciku7zRTqfXUR01SpfqrH1PSfqKRWy8o4bPmExH_DisnRfNPjNvaqsoFTMdvPQ73HxNAiIXbCVmzx4YWMOOVGH5p-lBgdDotmv08V-x2ZkbitJMEg1JiUfKCcFrZci_NhTiK9K67i8iPfNfb4bR7Sxa7TvlfLB5PTaG7R97mlyUxduqVu0]--></g></svg>